<svg xmlns="http://www.w3.org/2000/svg" xmlns:xlink="http://www.w3.org/1999/xlink" viewBox="0 0 2770.99 2800"><defs><style>.cls-1{fill:url(#linear-gradient);}.cls-2{fill:#91b3fa;}.cls-3{fill:#7d97f4;}.cls-4{fill:#bdd0fb;}.cls-5{fill:url(#linear-gradient-2);}.cls-6{fill:#1f5aa9;}.cls-7{opacity:0.8;}.cls-8{fill:#fff;}.cls-9{fill:url(#linear-gradient-3);}.cls-10{fill:url(#linear-gradient-4);}.cls-11{fill:url(#linear-gradient-5);}.cls-12{fill:url(#linear-gradient-6);}.cls-13{fill:url(#linear-gradient-7);}.cls-14{fill:url(#linear-gradient-8);}.cls-15{fill:url(#linear-gradient-9);}.cls-16{fill:url(#linear-gradient-10);}.cls-17{fill:url(#linear-gradient-11);}.cls-18{fill:url(#linear-gradient-12);}.cls-19{fill:url(#linear-gradient-13);}.cls-20{fill:url(#linear-gradient-14);}.cls-21{fill:url(#linear-gradient-15);}.cls-22{fill:url(#linear-gradient-16);}.cls-23{fill:url(#linear-gradient-17);}.cls-24{fill:url(#linear-gradient-18);}.cls-25{fill:url(#linear-gradient-19);}.cls-26{fill:url(#linear-gradient-20);}.cls-27{fill:url(#linear-gradient-21);}.cls-28{fill:url(#linear-gradient-22);}.cls-29{fill:url(#linear-gradient-23);}.cls-30{fill:url(#linear-gradient-24);}.cls-31{fill:url(#linear-gradient-25);}.cls-32{fill:url(#linear-gradient-26);}.cls-33{fill:url(#linear-gradient-27);}.cls-34{fill:url(#linear-gradient-28);}.cls-35{fill:url(#linear-gradient-29);}.cls-36{fill:url(#linear-gradient-30);}.cls-37{fill:url(#linear-gradient-31);}.cls-38{fill:url(#linear-gradient-32);}.cls-39{fill:url(#linear-gradient-33);}.cls-40{fill:url(#linear-gradient-34);}.cls-41{fill:url(#linear-gradient-35);}.cls-42{fill:url(#linear-gradient-36);}.cls-43{fill:url(#linear-gradient-37);}.cls-44{fill:url(#linear-gradient-38);}</style><linearGradient id="linear-gradient" x1="3595.53" y1="4039.98" x2="1154.48" y2="1008.35" gradientUnits="userSpaceOnUse"><stop offset="0" stop-color="#dae3fe"/><stop offset="1" stop-color="#e9effd"/></linearGradient><linearGradient id="linear-gradient-2" x1="1094" y1="1928.97" x2="2793.25" y2="1928.97" gradientTransform="translate(28.22 -27.65) rotate(-1.25)" gradientUnits="userSpaceOnUse"><stop offset="0" stop-color="#09005d"/><stop offset="1" stop-color="#1a0f91"/></linearGradient><linearGradient id="linear-gradient-3" x1="-5826.76" y1="2887.07" x2="-5697.13" y2="2887.07" gradientTransform="translate(7143.36 595.72) rotate(2.91)" xlink:href="#linear-gradient-2"/><linearGradient id="linear-gradient-4" x1="-5847.58" y1="2468.96" x2="-5795.01" y2="2468.96" gradientTransform="translate(6720.29 24.5) rotate(-6.43)" gradientUnits="userSpaceOnUse"><stop offset="0" stop-color="#febbba"/><stop offset="1" stop-color="#ff928e"/></linearGradient><linearGradient id="linear-gradient-5" x1="-5529.8" y1="2652.08" x2="-5326.41" y2="2652.08" gradientTransform="translate(7051.29 734.04) rotate(2)" xlink:href="#linear-gradient-2"/><linearGradient id="linear-gradient-6" x1="-5476.79" y1="2786.35" x2="-5424.51" y2="2786.35" gradientTransform="translate(7252.57 1097.94) rotate(7.83)" xlink:href="#linear-gradient-4"/><linearGradient id="linear-gradient-7" x1="2477.27" y1="1032.32" x2="1595.89" y2="2248.24" gradientTransform="matrix(1, 0, 0, 1, 0, 0)" xlink:href="#linear-gradient-2"/><linearGradient id="linear-gradient-8" x1="1141.52" y1="2416.45" x2="1230" y2="2416.45" gradientUnits="userSpaceOnUse"><stop offset="0" stop-color="#4f52ff"/><stop offset="1" stop-color="#4042e2"/></linearGradient><linearGradient id="linear-gradient-9" x1="1621.16" y1="736.47" x2="1546.89" y2="1269.86" xlink:href="#linear-gradient-8"/><linearGradient id="linear-gradient-10" x1="-5235.67" y1="952.22" x2="-5025.28" y2="952.22" xlink:href="#linear-gradient-4"/><linearGradient id="linear-gradient-11" x1="1676.46" y1="1569.14" x2="1176.83" y2="2460.36" xlink:href="#linear-gradient-8"/><linearGradient id="linear-gradient-12" x1="-4795.69" y1="987.53" x2="-5215.52" y2="1509.85" xlink:href="#linear-gradient-4"/><linearGradient id="linear-gradient-13" x1="-4716.09" y1="1051.5" x2="-5135.94" y2="1573.83" xlink:href="#linear-gradient-4"/><linearGradient id="linear-gradient-14" x1="-5268.02" y1="671.89" x2="-5674.63" y2="1418.99" xlink:href="#linear-gradient-4"/><linearGradient id="linear-gradient-15" x1="-4046.2" y1="-116.49" x2="-4225.91" y2="121.24" gradientTransform="translate(4549.52 -1168.77) rotate(-41.65)" xlink:href="#linear-gradient-4"/><linearGradient id="linear-gradient-16" x1="-4183.45" y1="-59.14" x2="-3968.78" y2="-59.14" gradientTransform="translate(4549.52 -1168.77) rotate(-41.65)" xlink:href="#linear-gradient-2"/><linearGradient id="linear-gradient-17" x1="-4309.4" y1="71.77" x2="-4165.26" y2="-76.11" gradientTransform="translate(4549.52 -1168.77) rotate(-41.65)" xlink:href="#linear-gradient-4"/><linearGradient id="linear-gradient-18" x1="1888.4" y1="524.1" x2="1948.52" y2="1041.17" gradientUnits="userSpaceOnUse"><stop offset="0" stop-color="#e1473d"/><stop offset="1" stop-color="#e9605a"/></linearGradient><linearGradient id="linear-gradient-19" x1="3019.23" y1="1557.08" x2="2641.13" y2="2482.06" xlink:href="#linear-gradient-18"/><linearGradient id="linear-gradient-20" x1="2948.47" y1="2378.21" x2="2165.28" y2="3525.99" gradientUnits="userSpaceOnUse"><stop offset="0" stop-color="#ff928e"/><stop offset="1" stop-color="#fe7062"/></linearGradient><linearGradient id="linear-gradient-21" x1="4140.84" y1="2373.55" x2="3074.07" y2="2711.14" xlink:href="#linear-gradient-20"/><linearGradient id="linear-gradient-22" x1="2918.12" y1="1515.75" x2="2540.03" y2="2440.73" xlink:href="#linear-gradient-18"/><linearGradient id="linear-gradient-23" x1="1271.99" y1="1094.87" x2="1589.3" y2="-160.87" gradientTransform="matrix(0.93, 0.01, -0.01, 1.2, -117.77, 418.23)" xlink:href="#linear-gradient-20"/><linearGradient id="linear-gradient-24" x1="2165.32" y1="-527.37" x2="1512.09" y2="581.6" gradientTransform="matrix(0.93, 0, 0, 1.2, -98.38, 402.17)" xlink:href="#linear-gradient-8"/><linearGradient id="linear-gradient-25" x1="1686.81" y1="1199.71" x2="2004.13" y2="-56.03" gradientTransform="matrix(0.93, 0.01, -0.01, 1.2, -117.77, 418.23)" xlink:href="#linear-gradient-20"/><linearGradient id="linear-gradient-26" x1="2415.88" y1="-359.13" x2="1975.33" y2="633.37" gradientTransform="matrix(0.93, 0, 0, 1.2, -98.38, 402.17)" xlink:href="#linear-gradient-8"/><linearGradient id="linear-gradient-27" x1="2112.79" y1="1307.38" x2="2430.11" y2="51.61" gradientTransform="matrix(0.93, 0.01, -0.01, 1.2, -117.77, 418.23)" xlink:href="#linear-gradient-20"/><linearGradient id="linear-gradient-28" x1="2738.39" y1="-257.07" x2="2454.82" y2="659.46" gradientTransform="matrix(0.93, 0, 0, 1.2, -98.38, 402.17)" xlink:href="#linear-gradient-8"/><linearGradient id="linear-gradient-29" x1="2517.8" y1="1409.75" x2="2835.12" y2="153.97" gradientTransform="matrix(0.93, 0.01, -0.01, 1.2, -117.77, 418.23)" xlink:href="#linear-gradient-20"/><linearGradient id="linear-gradient-30" x1="3048.41" y1="-282.35" x2="2987.65" y2="735.42" gradientTransform="matrix(0.93, 0, 0, 1.2, -98.38, 402.17)" xlink:href="#linear-gradient-8"/><linearGradient id="linear-gradient-31" x1="1404.86" y1="254" x2="1402.98" y2="710.06" gradientTransform="matrix(0.93, 0.01, -0.01, 1.2, -117.77, 418.23)" xlink:href="#linear-gradient-20"/><linearGradient id="linear-gradient-32" x1="1630.76" y1="394.61" x2="1718.53" y2="-179.31" gradientTransform="matrix(0.93, 0, 0, 1.2, -98.38, 402.17)" xlink:href="#linear-gradient-8"/><linearGradient id="linear-gradient-33" x1="1899.46" y1="254.03" x2="1897.59" y2="710.06" gradientTransform="matrix(0.93, 0.01, -0.01, 1.2, -117.77, 418.23)" xlink:href="#linear-gradient-20"/><linearGradient id="linear-gradient-34" x1="2114.82" y1="468.63" x2="2202.6" y2="-105.29" gradientTransform="matrix(0.93, 0, 0, 1.2, -98.38, 402.17)" xlink:href="#linear-gradient-8"/><linearGradient id="linear-gradient-35" x1="2394.08" y1="254.06" x2="2392.2" y2="710.06" gradientTransform="matrix(0.93, 0.01, -0.01, 1.2, -117.77, 418.23)" xlink:href="#linear-gradient-20"/><linearGradient id="linear-gradient-36" x1="2598.89" y1="542.65" x2="2686.67" y2="-31.27" gradientTransform="matrix(0.93, 0, 0, 1.2, -98.38, 402.17)" xlink:href="#linear-gradient-8"/><linearGradient id="linear-gradient-37" x1="2892.32" y1="254.06" x2="2890.45" y2="710.12" gradientTransform="matrix(0.93, 0.01, -0.01, 1.2, -117.77, 418.23)" xlink:href="#linear-gradient-20"/><linearGradient id="linear-gradient-38" x1="3084.75" y1="616.94" x2="3172.53" y2="43.02" gradientTransform="matrix(0.93, 0, 0, 1.2, -98.38, 402.17)" xlink:href="#linear-gradient-8"/></defs><title>cart</title><g id="Illustration"><path class="cls-1" d="M2924,2844.42c-56.07,59-109.12,97.09-151,127.17-492.72,353.52-1075.73,250.47-1199.64,225.31-183-37.17-536.65-109-792.35-409.7C394.1,2332.26,454.34,1615.52,754.41,1142.39c54.89-86.54,344.83-566.88,934.12-643.91,356.63-46.62,772.35,47.4,1073.4,299.63C3393.87,1327.54,3348.88,2397.1,2924,2844.42Z" transform="translate(-469.51 -455)"/><path class="cls-2" d="M1225.8,2215.59s8.47-356-155.49-451.26-475.71-154.84-487.4-666c-6.84-299.25-14.25-430.09-19.21-487.14a33.7,33.7,0,0,1,39.79-36.09c155.29,29.26,659.74,149.67,765.51,494C1494.38,1477.26,1225.8,2215.59,1225.8,2215.59Z" transform="translate(-469.51 -455)"/><path class="cls-3" d="M723.59,717.32c170.45,152,367.56,421.08,472.61,690.13,13.49,44.34,52.93,138.63,70.06,306.17,15.3,139.73,7.7,287.39-10.85,385.13a11.4,11.4,0,0,1-13.32,9.06c-10.62-2-9.21-13.44-9.11-13.08,21.18-167,12.39-374.84-36.16-562.38-62-230.27-200.36-453.53-343.45-642.89l-14.72-18.64C727.79,728.45,704.45,727.4,714.82,717.48A6.48,6.48,0,0,1,723.59,717.32Z" transform="translate(-469.51 -455)"/><path class="cls-4" d="M1489.29,2900c22.19,10.88-210-281.11-282.74-739.69-34.28-216.1-34.72-486.85-157.82-591.18-102.45-86.84-451.08-32-565.15-11.18a17.1,17.1,0,0,0-8,29.92c54.71,45.95,171.73,154.31,202.22,263.52,40.19,143.95,177,235.51,299.56,260.29s190.67,48.82,250.36,244.76S1426.26,2869.1,1489.29,2900Z" transform="translate(-469.51 -455)"/><path class="cls-2" d="M644,1618.78c145.54,6.09,301.76,72.48,381,197l7.48,11.89c17.28,27.86,115.23,225.94,169.63,390.13a3.92,3.92,0,0,1-2.48,4.94,4,4,0,0,1-4.89-2.34c-37.9-92.76-92.33-210.36-135.69-298.3-46.49-96-79-161-185.07-223.21-118-67-230.8-74-230.46-73.88a3.13,3.13,0,0,1,.44-6.24Z" transform="translate(-469.51 -455)"/><path class="cls-2" d="M1389.75,2938.42c13.17,6.94-74.15-143.34-80.85-275.75s-36.57-358.39-150.75-493.58-239.22-147.51-396.77-24.62c-131.3,102.41-213.2,154.1-261.23,163.7-11.89,2.38-18,15.81-12.17,26.47,30.8,56.73,117.9,187,264.14,177.87,186.54-11.71,412.61-133,481.51-31.81s60.06,157.76,62.17,205.7S1302.64,2892.49,1389.75,2938.42Z" transform="translate(-469.51 -455)"/><path class="cls-3" d="M814.31,2306.79c57.14-54.79,150.21-108.62,231.55-98.58,105.83,17,176.33,87.71,214.78,192.91,15,44.67,21.22,68.52,30.11,123.27.71,4.37-5.74,5.68-6.82,1.41-6.46-25.72-12.87-52.65-22.45-80.5-55.78-179.69-174.86-203.89-179.49-207.57-9,.89-63.57-40-193.07,29.72a573.93,573.93,0,0,0-69.81,44.75l-.13.1a3.62,3.62,0,0,1-4.67-5.51Z" transform="translate(-469.51 -455)"/><path class="cls-5" d="M1286.93,610.12a127.78,127.78,0,0,0-116.59,127c-1.15,404.45-3,1799.57,23.33,2293.23a99.2,99.2,0,0,0,98,93.87c259.06,2.79,1004.34,7.92,1427.4-19.15a167.06,167.06,0,0,0,156.52-166.88c-.53-434.74-7.63-1676.6-69.76-2202.42a91,91,0,0,0-83.11-80C2476.08,636.13,1669.91,576.81,1286.93,610.12Z" transform="translate(-469.51 -455)"/><path class="cls-2" d="M1274.33,843.14c-5.08,346-19.57,1496.79,5.72,1921.54,3.69,62.09,51.92,111.1,111.47,113.18,245.17,8.54,873.87,25.07,1232.12-14.34,64.51-7.1,113.81-63,115.53-130.72,9-353,33.16-1424.91,8.59-1844.92-3.92-67-55.11-120.46-119.28-124.79C2363,745.21,1681.34,704,1376.7,729.32,1319.51,734.09,1275.22,783.25,1274.33,843.14Z" transform="translate(-469.51 -455)"/><path class="cls-6" d="M1866.7,670.27a17.94,17.94,0,0,0,17.39,17.57c47.17,1.43,180.07,5.5,239.46,7.64a18,18,0,0,0,18.19-21.75c-.2-.36-1.72-15.05-16.72-16.09-40.18-2.8-161.4-10.33-241.51-5.71C1867.06,652.88,1866.17,671.59,1866.7,670.27Z" transform="translate(-469.51 -455)"/><g class="cls-7"><path class="cls-8" d="M2330.9,2132.41c-4.17-5.13-10.71-7.26-17.66-7.11l-632.06,13.26-16-50.72a16.45,16.45,0,0,0-16.38-11.39l-86.78,2.28c-9.31.24-16.84,6.71-16.84,16s7.53,15.38,16.84,15.16l74.16-1.75,134.19,428.79a17.72,17.72,0,0,0,16.71,12.29l443.64,6c10.42.14,18.87-6.39,18.87-16.23s-8.45-16.59-18.87-16.7l-430.69-4.64-34.57-111.34,473.3.72a21.93,21.93,0,0,0,20.95-15.12l74.7-241.53A19,19,0,0,0,2330.9,2132.41Z" transform="translate(-469.51 -455)"/><path class="cls-8" d="M1852,2575.67c-36.5-.57-66,27.84-66,63.33s29.53,65.12,66,66.08c36.73,1,66.77-27.43,66.77-63.31S1888.75,2576.24,1852,2575.67Zm0,94.9c-17.06-.4-30.9-14.23-30.9-30.84s13.84-29.87,30.9-29.55,31.07,14.15,31.07,30.85S1869.13,2671,1852,2670.57Z" transform="translate(-469.51 -455)"/><path class="cls-8" d="M2147.76,2580.26c-38.31-.59-69.3,28.5-69.3,64.85s31,66.74,69.3,67.74c38.55,1,70.09-28.06,70.09-64.83S2186.31,2580.86,2147.76,2580.26Zm0,97.24c-17.91-.42-32.44-14.61-32.44-31.62s14.53-30.59,32.44-30.26,32.61,14.52,32.61,31.62S2165.72,2677.92,2147.76,2677.5Z" transform="translate(-469.51 -455)"/></g><path class="cls-9" d="M1198.13,3138.92s-15.53,21.94-22.37,85.25a10.35,10.35,0,0,0,9.72,11.47l112.5,5.71a6.64,6.64,0,0,0,6.75-8.41c-5.6-19.85-23.12-68.43-66.22-97.87Z" transform="translate(-469.51 -455)"/><path class="cls-10" d="M1182.88,3104.5l12.32,52.38a10,10,0,0,0,9.7,7.79,89.26,89.26,0,0,0,23.65-2.89,16.52,16.52,0,0,0,11.69-17.79l-5.78-51.26Z" transform="translate(-469.51 -455)"/><path class="cls-11" d="M1455.07,3142.81s-22.72,32.74-23.86,78.73a19.91,19.91,0,0,0,19.33,20.16l174.85,6.1a8.38,8.38,0,0,0,5.34-15.06c-32.27-24.39-95.79-70.07-142.24-88.76Z" transform="translate(-469.51 -455)"/><path class="cls-12" d="M1450.71,3087l4.48,67.22a13.61,13.61,0,0,0,14.49,12.8,49.3,49.3,0,0,0,16.11-4.28,15.6,15.6,0,0,0,9.08-14.85l-3-81.1Z" transform="translate(-469.51 -455)"/><path class="cls-13" d="M1102.6,2200.34s-42.29,46.69-45.51,97.49S1179,3154.36,1179,3154.36s47.84,2.51,70.39-14.88c0,0-30.53-528.62-22.39-652.49,0,0,175.8,531.33,218.59,626.09,0,0,45.86.4,59.48-9.85,0,0-109.52-702.09-161.33-823.27Z" transform="translate(-469.51 -455)"/><path class="cls-14" d="M1223.15,2471.82a6.85,6.85,0,0,1-6.39-4.39l-27.61-71.76-43.81-21.61a6.85,6.85,0,0,1,6.06-12.28l46.21,22.79a6.84,6.84,0,0,1,3.36,3.68l28.57,74.26a6.85,6.85,0,0,1-6.39,9.31Z" transform="translate(-469.51 -455)"/><path class="cls-15" d="M1513.25,1680.32c-199.52,5.88-246.58,52.61-246.58,52.61l111.91,139.26s193.8-25.73,320.88-148.7c-29.21-25.11-50.8-54.07-65.12-76.9C1600.13,1665.55,1559.79,1679,1513.25,1680.32Z" transform="translate(-469.51 -455)"/><path class="cls-16" d="M1818.54,1402.42c-1-6.3-17.78-58.4-51.37-29.76l-8,38.26a56.38,56.38,0,0,0-.71,33.86l12.38,30.33a54.46,54.46,0,0,1-6.18,44.29c-19.91,31.58-63.3,90.07-130.28,127.19,14.32,22.83,35.91,51.79,65.12,76.9,46.63-45.11,84.29-103.3,100.08-178.14a26.62,26.62,0,0,0,15.7-28.39Z" transform="translate(-469.51 -455)"/><path class="cls-17" d="M1588.12,1759.93c-78-67.13-214.41-86.07-292.72-91.33a70.85,70.85,0,0,0-73.65,53.51c-24.07,96.73-90.76,348.85-104.29,392.41-11.09,35.74-22.94,70.76-30.5,92.67a25.12,25.12,0,0,0,15.4,31.95c68.07,23.85,188.22,46,236.87,54.38a16.26,16.26,0,0,0,18.93-17.88,50.78,50.78,0,0,1,4.27-26.79l144.86-317.38c125.09,110.75,223.73,111,295.48,75.63a565.74,565.74,0,0,1-37.92-114C1652.21,1886.59,1588.12,1759.93,1588.12,1759.93Z" transform="translate(-469.51 -455)"/><path class="cls-18" d="M1945.16,1851.78l-22.94-24.34c-59.56,51.62-112.34,68.21-157.37,65.62a565.74,565.74,0,0,0,37.92,114C1897.31,1960.44,1945.16,1851.78,1945.16,1851.78Z" transform="translate(-469.51 -455)"/><path class="cls-19" d="M1931.15,1853.85l112.84-8.29,96.93-69.44c-15.9-7.63-97.72,20.86-97.72,20.86s-89.27-3.38-113-.73c-19.73,2.2-13.71,30.25-11.11,39.7.53,1.92.92,3.08.92,3.08Z" transform="translate(-469.51 -455)"/><path class="cls-20" d="M1385.43,1519l-43,151.33s73.42,39.46,127.71,28.8l14.92-133.4Z" transform="translate(-469.51 -455)"/><path class="cls-21" d="M1474.44,1409.08c1.57,1.78,60,147.11,60,147.11l-83.69,31.6-75.85-129.51S1448.08,1379.45,1474.44,1409.08Z" transform="translate(-469.51 -455)"/><path class="cls-22" d="M1409.69,1475.33l34.59,71.31a10.7,10.7,0,0,0,1.67,2.5c4.13,4.66,19.5,19.63,33.86,3,13-15.12,25.14-28.73,37.34-32.32a11.06,11.06,0,0,1,13.41,6.48c5.3,13.21,16.71,43.19,22.64,70.75a11,11,0,0,1-7.58,12.83c-16.47,5.09-51.5,14.86-81.53,16.12a11.07,11.07,0,0,1-10-5.34c-10.23-17-41.52-68.6-52.46-81.63-10.27-12.23-31.76-9.43-40.69-7.61a10.87,10.87,0,0,1-8.41-1.74c-8.67-6-25.7-22-6.94-45.55a11.09,11.09,0,0,0-2-15.83c-10-7.51-21.46-21.56-8.45-42,13.22-20.82,33.86-20.07,46.81-16.93a11.08,11.08,0,0,0,12.69-6.39c1.26-2.8,3.76-5.08,8.51-5.21a10.89,10.89,0,0,0,10.3-12.41c-1.59-12.21,1-28.15,21.51-37.14,36.32-16,63.89,17.75,69.27,44.63s-35,41.93-59.6,42.85c-18.72.71-30.43,20.66-35,30.19A11,11,0,0,0,1409.69,1475.33Z" transform="translate(-469.51 -455)"/><path class="cls-23" d="M1414.49,1564.83s-11.39-46.42-31.25-46.52-37.11,18.16-14.65,42.4C1396.54,1590.87,1414.49,1564.83,1414.49,1564.83Z" transform="translate(-469.51 -455)"/><path class="cls-24" d="M1968.69,1833.64c-22.82,1.49-44-9.12-55.86-28.09l-198.34-318.5c-18.59-29.85-8.58-70.73,22.36-91.3s71-13.06,89.58,16.78L1964,1633.62,2145.49,1264c16.29-33.17,55.42-48.39,87.39-34s44.67,52.91,28.41,86.07l-234.56,478.09c-10.74,21.89-32.09,37-55.75,39.33C1970.21,1833.52,1969.45,1833.59,1968.69,1833.64Z" transform="translate(-469.51 -455)"/><path class="cls-25" d="M2560.64,2275.37a8.44,8.44,0,0,1-8.43-8.18c-.09-3.07-2-76,19.43-153.92,28.93-104.93,87-167.11,167.78-179.84,39.61-6.23,74.91,3.12,104.91,27.79,97.79,80.44,107.09,296.24,107.44,305.39a8.44,8.44,0,0,1-16.87.64c-.08-2.16-9.36-217.4-101.31-293-26.11-21.47-56.91-29.6-91.54-24.14-179.67,28.28-173.06,313.68-173,316.56a8.44,8.44,0,0,1-8.18,8.69Z" transform="translate(-469.51 -455)"/><path class="cls-26" d="M2205.15,3199.42l145-1000,544.78-9.16L3070.53,3255H2252.32C2223.21,3255,2200.9,3228.71,2205.15,3199.42Z" transform="translate(-469.51 -455)"/><path class="cls-27" d="M3000.74,2199.38l-105.8-9.16L3070.53,3255h105c21.3,0,37.21-19.91,32.87-41.11Z" transform="translate(-469.51 -455)"/><path class="cls-28" d="M2826.27,2273.08a8.45,8.45,0,0,1-8.43-8.12c-.08-2.16-9.36-217.4-101.31-293-26.11-21.47-56.9-29.6-91.54-24.14-179.53,28.26-173.06,313.68-173,316.56a8.44,8.44,0,0,1-16.87.52c-.09-3.07-2-76,19.43-153.92,28.93-104.93,87-167.11,167.78-179.84,39.61-6.23,74.91,3.12,104.91,27.79,97.79,80.44,107.09,296.24,107.44,305.39a8.43,8.43,0,0,1-8.11,8.75Z" transform="translate(-469.51 -455)"/><path class="cls-29" d="M1329.78,455c-7-.07-13.48,2.61-17.27,8.81C1232.78,594.14,1153,729.14,1073.3,853.75l231.18,2.34c61.58-124.8,123.31-263.93,185-399.47Z" transform="translate(-469.51 -455)"/><path class="cls-30" d="M1535.63,861.45l-231.18-2.34,185-401.56,170.87,1.73Q1598,660.36,1535.63,861.45Z" transform="translate(-469.51 -455)"/><path class="cls-31" d="M1766.81,863.79l-231.18-2.34q62.36-201.09,124.7-402.17L1831.21,461Q1799,662.41,1766.81,863.79Z" transform="translate(-469.51 -455)"/><path class="cls-32" d="M1998,866.13l-231.18-2.34Q1799,662.4,1831.21,461l170.87,1.73Q2000,664.44,1998,866.13Z" transform="translate(-469.51 -455)"/><path class="cls-33" d="M2229.18,868.47,1998,866.13q2.05-201.69,4.09-403.4L2173,464.46Q2201.06,666.47,2229.18,868.47Z" transform="translate(-469.51 -455)"/><path class="cls-34" d="M2460.36,870.81l-231.18-2.34q-28.11-202-56.23-404l170.87,1.73Q2402.08,668.49,2460.36,870.81Z" transform="translate(-469.51 -455)"/><path class="cls-35" d="M2691.54,873.15l-231.18-2.34q-58.28-202.3-116.54-404.62l170.88,1.73Q2603.11,670.54,2691.54,873.15Z" transform="translate(-469.51 -455)"/><path class="cls-36" d="M2691.48,477.76c-3.67-6.28-10.13-9.08-17.09-9.15L2514.7,467c58.93,136.77,117.82,277.12,176.87,403.14l224.78,2.27c2.58,0,4.05-3.78,2.46-6.39C2843,741.62,2767.25,607.43,2691.48,477.76Z" transform="translate(-469.51 -455)"/><path class="cls-37" d="M1075.48,853.77c-3,0-5.54,3.12-5.58,7l-.63,62.79c-.59,58.2,54.76,102.67,118.43,103.31l2.48,0c63.67.64,115.18-42.75,115.77-101l.71-69.88Z" transform="translate(-469.51 -455)"/><path class="cls-38" d="M1306.66,856.11,1306,926c-.59,58.2,48.18,102.61,110.77,103.24l2.44,0c62.6.63,112.74-42.78,113.33-101l.7-69.88Z" transform="translate(-469.51 -455)"/><path class="cls-39" d="M1533.19,858.4l-.7,69.88c-.59,58.2,53.48,102.66,117.15,103.31l2.47,0c63.67.65,113.09-42.77,113.68-101l.7-69.88Z" transform="translate(-469.51 -455)"/><path class="cls-40" d="M1766.49,860.76l-.7,69.88c-.59,58.2,50.27,102.63,112.87,103.26l2.43,0c62.6.63,114-42.76,114.62-101l.7-69.88Z" transform="translate(-469.51 -455)"/><path class="cls-41" d="M1996.41,863.09l-.7,69.88c-.59,58.2,52.19,102.65,115.86,103.29l2.48,0c63.67.64,111-42.79,111.58-101l.7-69.88Z" transform="translate(-469.51 -455)"/><path class="cls-42" d="M2226.33,865.42l-.7,69.88c-.59,58.2,52.36,102.65,115,103.28l2.43,0c62.6.64,115.32-42.74,115.9-100.94l.71-69.88Z" transform="translate(-469.51 -455)"/><path class="cls-43" d="M2459.63,867.78l-.71,69.88c-.58,58.2,50.91,102.63,114.58,103.28l2.48,0c63.67.64,115.66-42.74,116.25-100.94l.7-69.88Z" transform="translate(-469.51 -455)"/><path class="cls-44" d="M2692.93,870.14l-.7,69.88c-.59,58.2,47.7,102.6,110.29,103.23l2.44,0c62.59.63,113.21-42.77,113.8-101l.71-69.88Z" transform="translate(-469.51 -455)"/></g></svg>