<svg xmlns="http://www.w3.org/2000/svg" viewBox="0 0 786.33 415.77"><defs><style>.cls-1{isolation:isolate;}.cls-2{opacity:0.84;}.cls-3{fill:#e8e5e3;}.cls-4{fill:#006ed2;}.cls-5{fill:#ff9e96;}.cls-6{fill:#eb5e45;}.cls-7{fill:#f37971;}.cls-8{fill:#18203c;}.cls-23,.cls-25,.cls-31,.cls-36,.cls-39,.cls-40,.cls-9{fill:none;}.cls-9{stroke:#d6d6d6;stroke-width:0.63px;}.cls-23,.cls-25,.cls-31,.cls-36,.cls-39,.cls-40,.cls-43,.cls-9{stroke-miterlimit:10;}.cls-10{fill:#000205;}.cls-11{fill:#ff8278;}.cls-12{fill:#000428;}.cls-13{fill:#fff;}.cls-14,.cls-42{fill:#6aaae6;}.cls-15{opacity:0.66;}.cls-16{fill:#a6a6a6;}.cls-17{fill:#000d28;}.cls-18{fill:#f0826c;}.cls-19,.cls-20{fill:#ce4c55;}.cls-20{opacity:0.76;}.cls-21{fill:#000307;}.cls-22{fill:#e86056;}.cls-23{stroke:#000307;}.cls-23,.cls-31{stroke-width:0.49px;}.cls-24{fill:#f9cc48;}.cls-25,.cls-39,.cls-40{stroke:#fff;}.cls-25{stroke-width:0.47px;}.cls-26{opacity:0.21;}.cls-26,.cls-29,.cls-42{mix-blend-mode:multiply;}.cls-27{fill:#e8e4e3;}.cls-28{fill:#fffcfa;}.cls-30{opacity:0.53;}.cls-31{stroke:#ce4c55;stroke-linecap:round;}.cls-32{fill:#ffbbb5;}.cls-33{fill:#fa786b;}.cls-34{fill:#ff9199;}.cls-35{fill:#ffb3af;}.cls-36{stroke:#325081;stroke-width:0.47px;}.cls-37{mix-blend-mode:soft-light;}.cls-38{fill:#c75842;}.cls-39{stroke-width:0.62px;}.cls-40{stroke-width:0.5px;}.cls-41{fill:#232f51;}.cls-43,.cls-44{fill:#000f30;}.cls-43{stroke:#1c254f;stroke-width:0;}</style></defs><title>5215542</title><g class="cls-1"><g id="OBJECTS"><g class="cls-2"><path class="cls-3" d="M337.85,384c20.23,2.31,40.41-8.25,53.73-23.66s20.63-35.11,25.51-54.89c3.74-15.15,6.2-31,3-46.31s-12.88-29.93-27.47-35.47c-7-2.67-14.87-3.16-21.49-6.74-18.41-10-17.67-35.81-22.15-56.26a85.4,85.4,0,0,0-23.9-42.85c-11.93-11.54-29.78-19.6-45.07-13.15-11.71,4.94-18.73,17-23.33,28.85-21.47,55.23-7.72,117.46,10.16,174,7.53,23.77,39.49,72.24,64.25,75.18" transform="translate(-31.58 -39.07)"/><path class="cls-3" d="M391.43,193.37a10.3,10.3,0,1,0-9.35,11.17A10.3,10.3,0,0,0,391.43,193.37Z" transform="translate(-31.58 -39.07)"/><path class="cls-3" d="M278.15,82.31a4.41,4.41,0,1,0-4,4.79A4.41,4.41,0,0,0,278.15,82.31Z" transform="translate(-31.58 -39.07)"/><path class="cls-3" d="M410.57,361.55a4.18,4.18,0,1,1-4.53-3.8A4.19,4.19,0,0,1,410.57,361.55Z" transform="translate(-31.58 -39.07)"/><circle class="cls-3" cx="390.59" cy="381.75" r="10.23" transform="translate(-123.81 597.98) rotate(-72.21)"/></g><path class="cls-3" d="M257.77,446.64c0-2.49,35-4.5,78.14-4.5s78.14,2,78.14,4.5-35,4.49-78.14,4.49S257.77,449.12,257.77,446.64Z" transform="translate(-31.58 -39.07)"/><path class="cls-4" d="M297.09,177.12c-1.09,1.09-17.61,18.75-21.53,13.73-2-2.59,6.1-30.52,6.1-30.52l20.88-15.91Z" transform="translate(-31.58 -39.07)"/><path class="cls-5" d="M263.85,117c1.63,2.29,4.47,6.65,4.47,6.65s-11.69,50.88-.82,59c10.64,7.94,16-.66,16.18-7.44.18-9-.38-37.82-4.47-52.41l1.08-12.58s-.76-2.22-2.39.39-1.64,3.44-1.64,3.44a44.31,44.31,0,0,1-7-6.87c-1.38-1.75-2.82-5.44-3.27-6.1-1.47-2.13-1.47-.33-1.47.49s.16,2.12.16,2.12-2-3.92-2.45-2.94,3.32,8,3.32,8-3.22-8.28-4.4-7.69c-.78.39,1.13,7.25,3.53,9.54.46.44.14.8-.44.54-1.74-.76-4.78-5.67-5.45-5.23C258,106.41,263.24,116.11,263.85,117Z" transform="translate(-31.58 -39.07)"/><path class="cls-4" d="M281.3,133.26c2.2,15.1,5.08,41.2,4.94,48.33-.14,6.78-7.68,14.49-18.32,6.54-6.6-4.94-7.68-32.89-5.66-49.38C268,137,275.67,135.45,281.3,133.26Z" transform="translate(-31.58 -39.07)"/><path class="cls-6" d="M275.4,113.66a6.3,6.3,0,0,0-3,4.93c0,.47.7.47.73,0a5.58,5.58,0,0,1,2.69-4.3.37.37,0,0,0-.38-.63Z" transform="translate(-31.58 -39.07)"/><path class="cls-6" d="M264.63,103.41a10,10,0,0,0,4.26,5.8c.4.26.77-.38.37-.63a9.23,9.23,0,0,1-3.92-5.37.37.37,0,0,0-.71.2Z" transform="translate(-31.58 -39.07)"/><path class="cls-6" d="M262.09,102.33a36.6,36.6,0,0,0,2,4.46,7.81,7.81,0,0,0,2.59,3.28.37.37,0,0,0,.37-.64,7.49,7.49,0,0,1-2.39-3.13,35.51,35.51,0,0,1-1.89-4.17c-.17-.44-.88-.25-.72.2Z" transform="translate(-31.58 -39.07)"/><path class="cls-6" d="M266.77,110.52a10.29,10.29,0,0,1,3-1.41.37.37,0,0,0-.2-.71,11.12,11.12,0,0,0-3.13,1.49.38.38,0,0,0-.13.5.37.37,0,0,0,.51.13Z" transform="translate(-31.58 -39.07)"/><polygon class="cls-5" points="318.25 386.49 318.41 405.06 355.92 405.77 335.02 395.84 333.36 386.41 318.25 386.49"/><polygon class="cls-7" points="333.36 386.41 318.41 405.06 318.25 386.49 333.36 386.41"/><path class="cls-4" d="M350,432.61s16.45,12.35,24.9,11.2c1.74-.24.39-4.39-.08-5-.25-.33,8,3.36,14.42,6.62a2.7,2.7,0,0,1-1.37,5.11l-29.05-1.62-2.95-5.5-.74,5.94-7.18.42Z" transform="translate(-31.58 -39.07)"/><polygon class="cls-5" points="276.05 384.21 278.15 403.99 242.03 407.96 262.57 393.45 261.94 382.73 276.05 384.21"/><polygon class="cls-7" points="261.94 382.73 276.05 384.21 278.15 403.99 261.94 382.73"/><path class="cls-4" d="M309.24,432.87s-16.34,12.5-24.8,11.43c-1.74-.22-.43-4.39,0-5,.25-.33-8,3.43-14.35,6.75a2.71,2.71,0,0,0,1.42,5.11l29-1.89,2.89-5.53.8,5.93,7.18.36Z" transform="translate(-31.58 -39.07)"/><path class="cls-8" d="M297,204.37l40.55,8.5s6.32,12,32.5,212.47l-21,.36L313.24,273.63a1.92,1.92,0,0,0-3.78.43l3.29,150.87-21.92-2.23s-20.29-152.07-11.48-176.93C288.81,219.09,297,204.37,297,204.37Z" transform="translate(-31.58 -39.07)"/><path class="cls-9" d="M284.92,231.74s13.06,5.95,20.57-5.46S312,207.64,312,207.64" transform="translate(-31.58 -39.07)"/><path class="cls-9" d="M325.76,210.26s-1.31,15.37,3.27,20.6c5.42,6.19,12.75,2.61,12.75,2.61" transform="translate(-31.58 -39.07)"/><line class="cls-9" x1="301.05" y1="194.73" x2="331.57" y2="386.05"/><path class="cls-9" d="M299.61,423.47,287.33,273.85a93.48,93.48,0,0,1,3.74-34.91l1.66-5.47" transform="translate(-31.58 -39.07)"/><path class="cls-10" d="M320.29,94.86c-18.69.12-11.69,23.62-11.69,23.62a15.44,15.44,0,0,0,1.82,2.41L319.91,131l4.15-3.67L340,120C341,114.48,352.58,90.57,320.29,94.86Z" transform="translate(-31.58 -39.07)"/><path class="cls-10" d="M332.63,97.93a11,11,0,0,1-1.34-15.37,6.17,6.17,0,0,1,2.33-1.86,5.54,5.54,0,0,1,2.52-.35,8.74,8.74,0,0,1,7.37,6.28,11.47,11.47,0,0,1-1.95,9.75c-1.63,2.23-4.21,4-7,3.77" transform="translate(-31.58 -39.07)"/><path class="cls-5" d="M315,124s-1.59,21.21-1.81,23.07c0,0-1.84,22.71,17.81,3.31,0,0-.64-8.91-1.85-25.15Z" transform="translate(-31.58 -39.07)"/><path class="cls-6" d="M329.25,128.26c.14,3.11-3.16,11.85-10.19,11-5.29-.62-5.26-9.41-5.73-11.94-.39-2.12,6.6-4.33,9.5-4.45S329.12,125.14,329.25,128.26Z" transform="translate(-31.58 -39.07)"/><path class="cls-5" d="M317.56,134.25c-2.45.08-10.54-3.67-9.31-18.37,1.15-13.86,11.93-14.1,14.37-14,2.05.12,16.09-.44,13.77,16.74,0,.34.33.58.66.54,1.36-.17,4-1,4.9,2.65s-3.35,5.78-5.41,6.16c-.59.11-.86-.65-1.21-.14A32,32,0,0,1,317.56,134.25Z" transform="translate(-31.58 -39.07)"/><path class="cls-11" d="M323.83,123.09a3.67,3.67,0,1,1-3.72-3.62A3.67,3.67,0,0,1,323.83,123.09Z" transform="translate(-31.58 -39.07)"/><path class="cls-11" d="M309,125.44a3.67,3.67,0,0,0-.89-6.06A24.46,24.46,0,0,0,309,125.44Z" transform="translate(-31.58 -39.07)"/><path class="cls-6" d="M340.25,122.81s-2.62-4.24-4.48,2.12" transform="translate(-31.58 -39.07)"/><path class="cls-6" d="M312.67,118.12l.25,3.37-1.75-.22a.42.42,0,0,1-.29-.67Z" transform="translate(-31.58 -39.07)"/><path class="cls-12" d="M317.42,113.06c.57.47-.2-1.49-1-1.78a1.45,1.45,0,0,0-1.91.74A4.57,4.57,0,0,1,317.42,113.06Z" transform="translate(-31.58 -39.07)"/><path class="cls-12" d="M308.68,115a4.58,4.58,0,0,1,2.54-.79,1.46,1.46,0,0,0-1.92-.72,2,2,0,0,0-.82.82S308.42,115.18,308.68,115Z" transform="translate(-31.58 -39.07)"/><path class="cls-12" d="M315.16,118.54c-.05.6-.33,1.06-.62,1s-.48-.53-.42-1.12.33-1.06.62-1S315.21,118,315.16,118.54Z" transform="translate(-31.58 -39.07)"/><path class="cls-12" d="M311.07,118.18c-.06.56-.32,1-.6,1s-.45-.51-.4-1.07.32-1,.59-1S311.12,117.61,311.07,118.18Z" transform="translate(-31.58 -39.07)"/><path class="cls-10" d="M313.24,103.59c12.37,22.44,23.4,16,23.4,16s6.65-25.18-20.19-20C304.18,102,312.74,102.69,313.24,103.59Z" transform="translate(-31.58 -39.07)"/><path class="cls-13" d="M296,175.22" transform="translate(-31.58 -39.07)"/><path class="cls-13" d="M304.07,149.22l-9.73,58.19,43.3,5.9c2.81-8.07,6.6-26.59,5.84-26.5l13.82-12.72c-2-5.06-5.21-11.65-7.65-16.55A11.91,11.91,0,0,0,338.49,151l-7.17-5.44s-4.56,6.07-11.45,5.89-6.54-5.89-6.54-5.89Z" transform="translate(-31.58 -39.07)"/><path class="cls-4" d="M313.23,143.11l-12.4,103.76a9.69,9.69,0,0,1-11.3,8.39l-18-3.15s18.2-53.63,18-53,7.85-47.74,7.85-47.74S304.07,137.88,313.23,143.11Z" transform="translate(-31.58 -39.07)"/><path class="cls-14" d="M299.22,181c-.44,6.23-.53,12.31,1.52,18.28,1.18,3.4,2.37,11.34,4.2,14.45l8.72-70.68c-.6-.6-4.24,3.87-6.78,4.57A106.5,106.5,0,0,0,299.22,181Z" transform="translate(-31.58 -39.07)"/><path class="cls-4" d="M330.45,143.77l-8,105.62a6.54,6.54,0,0,0,6.36,7.14c10.24.25,28.17.64,28.64.49s-8.8-28.68-12.7-40.56a18.38,18.38,0,0,1-.4-10.13c3.1-12.57,10.18-45.08,3.45-55.1C341.78,141.59,330.45,143.77,330.45,143.77Z" transform="translate(-31.58 -39.07)"/><path class="cls-14" d="M330.18,209.48c3.33-6,4.85-13.48,6.3-20.1,2.84-13,1.16-29.32.59-42.92l-6.62-3.68-5.13,72.27A18.47,18.47,0,0,0,330.18,209.48Z" transform="translate(-31.58 -39.07)"/><path class="cls-4" d="M346.8,177.12c1.09,1.09,19.84,20.06,23.76,15,2-2.6-6.1-30.52-6.1-30.52l-21.37-15.48Z" transform="translate(-31.58 -39.07)"/><path class="cls-5" d="M379.86,112.6c-.47,2.91-.8,13.51-.8,13.51s10.42,49.68-.45,57.8c-10.63,8-16-.65-16.17-7.43-.19-9,.37-37.82,4.47-52.42l-1.09-12.57s.76-2.22,2.4.39,1.63,3.44,1.63,3.44,2.95-13.08,4.42-15.21,1.47-.33,1.47.49-.17,2.13-.17,2.13,2-3.93,2.46-3-1.31,8.67-1.31,8.67l2,1.49A2.72,2.72,0,0,1,379.86,112.6Z" transform="translate(-31.58 -39.07)"/><path class="cls-4" d="M364.81,134.56c-2.19,15.11-5.08,41.21-4.93,48.34.14,6.78,7.68,14.49,18.31,6.54,6.61-4.94,7.69-32.9,5.67-49.38C378.09,138.28,370.44,136.76,364.81,134.56Z" transform="translate(-31.58 -39.07)"/><path class="cls-6" d="M375.39,102.63a50.17,50.17,0,0,1-1.48,5.23c-.16.45.55.64.71.19a47,47,0,0,0,1.48-5.22c.11-.47-.6-.66-.71-.2Z" transform="translate(-31.58 -39.07)"/><path class="cls-6" d="M376.27,108.12a16.55,16.55,0,0,0-2.24,5.26,1.57,1.57,0,0,0,.08,1.09.91.91,0,0,0,1,.41c.83-.17,1.37-1.08,1.8-1.72a15.16,15.16,0,0,0,1.48-2.82c.18-.44-.54-.63-.71-.2a14,14,0,0,1-1.41,2.65,6.92,6.92,0,0,1-.81,1.06c-.2.2-.71.55-.73.05a4,4,0,0,1,.3-1.3c.14-.47.31-.93.49-1.39a16.3,16.3,0,0,1,1.41-2.72c.25-.4-.39-.77-.64-.37Z" transform="translate(-31.58 -39.07)"/><path class="cls-6" d="M375.69,114.06a1.73,1.73,0,0,0,3.33,0,.37.37,0,0,0-.26-.45.36.36,0,0,0-.45.25,1,1,0,0,1-1,.69h-.09s0,0,0,0l-.18,0s-.1-.05-.05,0l-.08,0-.16-.1h0l0,0-.08-.07-.07-.07,0,0c0-.05-.07-.1-.1-.16l0,0,0-.1a.39.39,0,0,0-.46-.26.38.38,0,0,0-.26.45Z" transform="translate(-31.58 -39.07)"/><path class="cls-6" d="M370.34,115.6a5.57,5.57,0,0,1,2.68,4.3c0,.47.78.47.74,0a6.32,6.32,0,0,0-3.05-4.94.37.37,0,0,0-.37.64Z" transform="translate(-31.58 -39.07)"/><g class="cls-15"><path class="cls-16" d="M340.18,47.28c4.45-5.15,10.18-8.21,16.54-8.21,8.47,0,15.15,4.45,15.15,13,0,8.27-10.12,10.3-10.12,14.12v3.5H350l-.06-5.09C349.92,58.8,360,55.49,360,52c0-2.42-2.48-3-4.71-3-2.73,0-6.1,2.67-8.27,5.22Zm15.33,25c4.52,0,7.58,3.11,7.58,6.74s-2.93,6.55-7.58,6.55c-4.13,0-7.25-3.24-7.25-6.55A7,7,0,0,1,355.51,72.32Z" transform="translate(-31.58 -39.07)"/><path class="cls-16" d="M305.65,67.23a12.39,12.39,0,0,1,6.2-8.43c4.26-2.2,8.78-1.69,11,2.64,2.15,4.16-2.41,7.82-1.42,9.74l.91,1.76L316.42,76l-1.36-2.55c-1.52-3,2.72-7.24,1.81-9-.63-1.22-2-.86-3.15-.29-1.37.71-2.38,2.94-2.81,4.78Zm14.22,8.63a4,4,0,0,1,5.57,1.43c.92,1.79.23,4.06-2.11,5.26a3.78,3.78,0,1,1-3.46-6.69Z" transform="translate(-31.58 -39.07)"/></g><g class="cls-2"><path class="cls-3" d="M115.31,113.44c-20.24-2.32-40.42,8.24-53.73,23.66S40.94,172.21,36.06,192c-3.74,15.15-6.2,31-3,46.31s12.88,29.93,27.47,35.47c7,2.67,14.88,3.17,21.5,6.75,18.41,10,17.67,35.81,22.14,56.25a85.49,85.49,0,0,0,23.91,42.86c11.92,11.53,29.78,19.6,45.06,13.15,11.72-4.95,18.73-17,23.33-28.85,21.47-55.24,7.72-117.47-10.16-174-7.53-23.78-39.48-72.25-64.24-75.19" transform="translate(-31.58 -39.07)"/><path class="cls-3" d="M61.72,304.05a10.3,10.3,0,1,0,9.35-11.17A10.3,10.3,0,0,0,61.72,304.05Z" transform="translate(-31.58 -39.07)"/><path class="cls-3" d="M175,415.11a4.41,4.41,0,1,0,4-4.79A4.41,4.41,0,0,0,175,415.11Z" transform="translate(-31.58 -39.07)"/><path class="cls-3" d="M42.58,135.87a4.18,4.18,0,1,1,4.53,3.79A4.18,4.18,0,0,1,42.58,135.87Z" transform="translate(-31.58 -39.07)"/><circle class="cls-3" cx="62.56" cy="115.66" r="10.23" transform="translate(-34.04 -37.71) rotate(-1.22)"/></g><ellipse class="cls-3" cx="87.1" cy="412.08" rx="64.14" ry="3.69"/><path class="cls-10" d="M154.57,95.15c8,.16,11.76,8,12,16,.07,2.57-.48,5.27.49,7.66,1.4,3.44,5.37,5,7.82,7.75a10.6,10.6,0,0,1,1.94,10.55l-6.91.68L167,131.19c-.29,2.39,0,7.89-.26,10.29-13.38.06-27.37-1.77-40.52.68a56.85,56.85,0,0,1-.89-10.34c-1.32,3.55-.24,6.45-.83,10.75a52.48,52.48,0,0,0-10.14,1,14.16,14.16,0,0,1,2.82-13.05c2.23-2.58,3.76-3.22,6.5-5.27s.39-5.26.49-9.15c.18-7.15,6.44-14.24,11.94-18.8s11.84-4.69,18.62-2.44" transform="translate(-31.58 -39.07)"/><path class="cls-17" d="M133.78,143.71" transform="translate(-31.58 -39.07)"/><path class="cls-18" d="M138.72,132.5s-.57,16.28-1.57,17.2c-.23.2-2.81.65-3.68,1.09,2.67,5.05,14.25,16.89,14.25,16.89l13.39-18-5.49-.43-2.15-16.18Z" transform="translate(-31.58 -39.07)"/><path class="cls-19" d="M139.85,133.2H151.9s-1.17,6.57-6.82,6.14S139.85,133.2,139.85,133.2Z" transform="translate(-31.58 -39.07)"/><path class="cls-18" d="M132.26,112.41a40.39,40.39,0,0,0-.52,5.42c.2.58-3.76-1.69-3.4,2.09.22,2.31,1.4,4.06,3.95,4.06,0,0,2.5,12.1,13,11.72,12.73-.45,14.26-9.32,14.26-9.32s3.92-.64,4.14-4c.08-3-2.31-2.75-2.31-2.75s2.11-7.33.84-11.8-1.11-12.23-11.84-13.13S133,103,132.58,105.7A54.36,54.36,0,0,0,132.26,112.41Z" transform="translate(-31.58 -39.07)"/><path class="cls-20" d="M143.09,135.58a12.25,12.25,0,0,0,2.22.12c9.71-.34,12.9-5.59,13.87-8.06A65.81,65.81,0,0,1,143.09,135.58Z" transform="translate(-31.58 -39.07)"/><path class="cls-10" d="M151.3,94.1a18.3,18.3,0,0,0-10.73,1.07C129,98.61,131.22,117,131.22,117c2.42,5.64,4.63.1,6.2-5a4.14,4.14,0,0,1,4.48-3c2.23.34,5.16-.87,6.13-4.75a34.89,34.89,0,0,0,13.25,15.33C163.48,120.42,173.68,97.56,151.3,94.1Z" transform="translate(-31.58 -39.07)"/><path class="cls-21" d="M149,116.29a1.71,1.71,0,0,1,1.64-.73c3,.44,2.92,1.83,2.92,1.83Z" transform="translate(-31.58 -39.07)"/><path class="cls-21" d="M143.88,113.81a3,3,0,0,0-2.06-1.07,2.77,2.77,0,0,0-2.85,1Z" transform="translate(-31.58 -39.07)"/><path class="cls-19" d="M144.62,124.67l1.86.4c.46.05.24-7.36.24-7.36S144.17,124.63,144.62,124.67Z" transform="translate(-31.58 -39.07)"/><path class="cls-19" d="M131.63,119.48a30.1,30.1,0,0,0,.42,3.22c.19.58-2.1-.51-2.06-2S131.63,119.48,131.63,119.48Z" transform="translate(-31.58 -39.07)"/><path class="cls-19" d="M160.3,124.42l1-3.51a1.27,1.27,0,0,1,1,1.65A2.25,2.25,0,0,1,160.3,124.42Z" transform="translate(-31.58 -39.07)"/><path class="cls-21" d="M151.31,121.56c-.21.75-.72,1.27-1.15,1.15s-.62-.82-.41-1.57.71-1.27,1.14-1.16S151.51,120.8,151.31,121.56Z" transform="translate(-31.58 -39.07)"/><path class="cls-21" d="M143.15,120.74c-.05.77-.44,1.39-.89,1.36s-.77-.68-.72-1.46.44-1.39.89-1.36S143.2,120,143.15,120.74Z" transform="translate(-31.58 -39.07)"/><path class="cls-22" d="M138.85,122.36a2.62,2.62,0,1,1-3.51,1.17A2.62,2.62,0,0,1,138.85,122.36Z" transform="translate(-31.58 -39.07)"/><path class="cls-22" d="M154.33,124.48a2.62,2.62,0,1,1-3.51,1.17A2.62,2.62,0,0,1,154.33,124.48Z" transform="translate(-31.58 -39.07)"/><path class="cls-23" d="M143.94,127a15.17,15.17,0,0,1,2.18.44" transform="translate(-31.58 -39.07)"/><path class="cls-18" d="M150.35,417.29,153,444.23s7.77.25,9.89-.49c1.8-.25,6.8-4.53,7.6-5.73-1.82-1-6.15-3.94-6.15-3.94l1-17.25Z" transform="translate(-31.58 -39.07)"/><path class="cls-19" d="M159.06,417.88l-.25,4.89s-5.45,21.72-5.95,19.5L150.72,419Z" transform="translate(-31.58 -39.07)"/><path class="cls-24" d="M164.56,433.67l15.95,10.4c.68.5,1.52,7.76.55,7.76,0,0-16.72.87-25,.66-.52,0-.84-7.38-1.3-7.4s-.94,7.74-1.31,7.72a12,12,0,0,1-2.55-.2c-.26-2.6,1-18.35,1-18.35s5.81,6.05,6.95,7.85C160.34,441.58,164.1,433.33,164.56,433.67Z" transform="translate(-31.58 -39.07)"/><path class="cls-4" d="M164.56,433.67l15.95,10.4c.68.5,1.52,7.76.55,7.76,0,0-16.72.87-25,.66-.52,0-.84-7.38-1.3-7.4s-.94,7.74-1.31,7.72a12,12,0,0,1-2.55-.2c-.26-2.6,1-18.35,1-18.35s5.81,6.05,6.95,7.85C160.34,441.58,164.1,433.33,164.56,433.67Z" transform="translate(-31.58 -39.07)"/><path class="cls-18" d="M97,417.73,94.7,438.51s-6.66,9.12-10,5c-1.66-2-7-4.34-7.77-5.54,1.82-1,6.16-3.94,6.16-3.94l1.66-16.64Z" transform="translate(-31.58 -39.07)"/><path class="cls-19" d="M92.33,417.43l.3,1.82s1.77,22.39,2.27,20.17l4.39-22Z" transform="translate(-31.58 -39.07)"/><path class="cls-4" d="M82.33,433.67l-16,10.4c-.68.5-1.53,7.76-.56,7.76,0,0,16.72.87,25,.66.52,0,.85-7.38,1.31-7.4s.93,7.74,1.31,7.72a12.22,12.22,0,0,0,2.55-.2c.25-2.6.08-17.7.08-17.7a98.73,98.73,0,0,1-7.63,7.2C87,441.58,82.78,433.33,82.33,433.67Z" transform="translate(-31.58 -39.07)"/><path class="cls-8" d="M123.34,207.55c-6.09,10.77-9.31,18.66-12.81,32.35-4.06,15.88-46.1,158.49-48,187.38,5,1.21,31.94.18,35.1,0,6-28.56,36.84-139.74,41.15-157.9.67-2.8,4.53-2.2,4.64.67,1.3,31.22,6.55,126.63,4.13,158.1,8.17.46,37.74,2.34,40.77,2,3.3-35.57,1.19-178.5-25.22-222.16C151,206.29,135.59,207.18,123.34,207.55Z" transform="translate(-31.58 -39.07)"/><path class="cls-25" d="M159.9,207.61s13.26,31.55,16,69C178.65,314.74,184,429.9,184,429.9" transform="translate(-31.58 -39.07)"/><line class="cls-25" x1="39.44" y1="388.86" x2="97.62" y2="168.88"/><path class="cls-26" d="M162.41,206.7l-49.9,42.84s2.28-25.23,11.12-41.81Z" transform="translate(-31.58 -39.07)"/><polygon class="cls-8" points="133.44 161.95 131.51 168.88 92.05 168.66 92.16 162.06 133.44 161.95"/><path class="cls-27" d="M156.61,149.27c.12-.31,14.36-13,17.74,20.93,2.73,27.52,2.51,30.46,2.51,30.46s-13.32,3.51-14,2.08C146.62,165.62,156.61,149.27,156.61,149.27Z" transform="translate(-31.58 -39.07)"/><path class="cls-24" d="M155.47,147.74c1.64,1.64,14.63,29,15,37.41a43.46,43.46,0,0,1-2.69,16.66s-43.07.65-44,1c-2.72-24.82-6.61-42.34,0-46.27,0,0,12.06-10.07,13.95-11.22C137.73,145.35,150.52,167,155.47,147.74Z" transform="translate(-31.58 -39.07)"/><polygon class="cls-28" points="102.88 108.4 106.32 101.7 118.58 116.58 114.82 124.75 102.88 108.4"/><polygon class="cls-28" points="123.32 103.99 118.58 116.58 123 124.59 127.41 111.34 123.32 103.99"/><g class="cls-29"><path class="cls-24" d="M126.59,160.33a.78.78,0,0,1-.37-.11c-2.71-1.43-5.56.4-5.91,3.45-.93,8,1.53,21.55,3.43,38.82.94-.37,43.67,0,43.67,0s.64.79,1.08-3a2.78,2.78,0,0,0-2.85-3.11c-23.4.68-39.46,6.75-37.63-35.19C128,160.59,127.22,160.33,126.59,160.33Z" transform="translate(-31.58 -39.07)"/></g><path class="cls-18" d="M158,144.25s-3.95,51.83,6.66,58.35c10.38,6.38,14.6-1.94,14.17-8.15-.58-8.21-8.78-42.15-13.74-55.15-1.53-5.24-5.12-11.45-6.32-10.47-.87,1.64-.33,5.56-.33,5.56s-15.2-.68-16.29.08c-.51.35,1.14,1.34,8,2.86-.77,1.31.43,5.24.43,5.24Z" transform="translate(-31.58 -39.07)"/><g class="cls-30"><path class="cls-31" d="M142.23,134.62c2.66,1.95,6.12,2.32,9.4,2.63" transform="translate(-31.58 -39.07)"/><path class="cls-31" d="M149.91,137.34c.16.26,0,.6.1.9a1.24,1.24,0,0,0,.45.59,5.77,5.77,0,0,0,2.81,1.27" transform="translate(-31.58 -39.07)"/><path class="cls-31" d="M150.31,138.72a6.38,6.38,0,0,0,.37,2.52A2.53,2.53,0,0,0,152,142.3a7.61,7.61,0,0,0,1.63.4" transform="translate(-31.58 -39.07)"/></g><path class="cls-18" d="M83.85,202.77a10.42,10.42,0,0,1,.85-11.59c4.46-5.74,13.49-13.79,25.1-26.83,7-7.87,14.12-11.23,18.08-10.91,6.31.5,6.38,9.93,2.39,14.84-8.58,10.54-29.16,30.39-29.82,31.19,4.83,9.68,9.79,16.11,13.89,22a5.5,5.5,0,0,0,.75.88,11.58,11.58,0,0,1,3.25,5.2c1.33,4.82,3.2,12.41,1.8,12.18-2-.35-4.78-7-4.78-7s1.54,17.91-1.7,18.25c-.35-.34-2.9-11.6-2.56-13.64,0,0,1,13.15,0,14-2.73,2.21-2.22-1.54-2.22-1.54l-1.37-18.08S91.52,216,83.85,202.77Z" transform="translate(-31.58 -39.07)"/><path class="cls-24" d="M127.88,153.44c-4-.32-11.07,3-18.08,10.91-6.07,6.82-11.42,12.26-15.79,16.73l.71.62,0,.05a5.37,5.37,0,0,1,1.15.83q6,5.68,11.87,11.55c6.41-7.17,16.74-18.8,22.48-25.85C134.26,163.37,134.19,153.94,127.88,153.44Z" transform="translate(-31.58 -39.07)"/><g class="cls-15"><path class="cls-16" d="M98.85,68.86c4.45-5.15,10.18-8.21,16.54-8.21,8.47,0,15.15,4.46,15.15,13.05,0,8.27-10.12,10.31-10.12,14.12v3.5H108.65l-.07-5.09c0-5.85,10.12-9.16,10.12-12.66,0-2.42-2.48-3-4.71-3-2.73,0-6.11,2.67-8.27,5.22Zm15.33,25c4.52,0,7.58,3.12,7.58,6.74s-2.93,6.56-7.58,6.56c-4.13,0-7.25-3.25-7.25-6.56A7,7,0,0,1,114.18,93.9Z" transform="translate(-31.58 -39.07)"/><path class="cls-13" d="M85,136.52a12.39,12.39,0,0,1,6.2-8.43c4.26-2.2,8.78-1.69,11,2.64,2.15,4.16-2.41,7.82-1.42,9.74l.91,1.76-5.93,3.06-1.36-2.55c-1.52-3,2.72-7.24,1.81-9-.63-1.22-2-.86-3.15-.29-1.37.71-2.38,2.94-2.81,4.78Zm14.22,8.63a4,4,0,0,1,5.57,1.43c.92,1.79.23,4.06-2.11,5.26a3.78,3.78,0,1,1-3.46-6.69Z" transform="translate(-31.58 -39.07)"/><path class="cls-16" d="M178.84,83.88a12.36,12.36,0,0,1,10.43.88c4.1,2.48,6,6.6,3.51,10.77-2.43,4-7.93,2-9.05,3.87l-1,1.7L177,97.65l1.46-2.49c1.72-2.84,7.59-1.47,8.62-3.17.71-1.17-.32-2.18-1.4-2.83-1.33-.8-3.75-.5-5.54.1Zm.09,16.64a4,4,0,0,1,1.69,5.49c-1.05,1.73-3.35,2.32-5.6.95a3.78,3.78,0,1,1,3.91-6.44Z" transform="translate(-31.58 -39.07)"/></g><g class="cls-2"><path class="cls-3" d="M734.18,381c20.23,2.32,40.42-8.24,53.73-23.66s20.63-35.11,25.51-54.88c3.74-15.15,6.2-31,3-46.31S803.57,226.25,789,220.71c-7-2.67-14.88-3.16-21.5-6.75-18.41-10-17.67-35.8-22.15-56.25a85.4,85.4,0,0,0-23.9-42.86c-11.92-11.53-29.78-19.59-45.06-13.14-11.72,4.94-18.73,17-23.34,28.85-21.46,55.23-7.71,117.46,10.17,174,7.52,23.77,39.48,72.24,64.24,75.18" transform="translate(-31.58 -39.07)"/><path class="cls-3" d="M787.76,190.43a10.3,10.3,0,1,0-9.35,11.17A10.3,10.3,0,0,0,787.76,190.43Z" transform="translate(-31.58 -39.07)"/><path class="cls-3" d="M675.48,69.25a4.42,4.42,0,1,0-4,4.79A4.41,4.41,0,0,0,675.48,69.25Z" transform="translate(-31.58 -39.07)"/><path class="cls-3" d="M806.9,358.6a4.18,4.18,0,1,1-4.53-3.79A4.17,4.17,0,0,1,806.9,358.6Z" transform="translate(-31.58 -39.07)"/><circle class="cls-3" cx="786.92" cy="378.81" r="10.23" transform="translate(-10.57 759.4) rotate(-54.42)"/></g><path class="cls-3" d="M657,446.64c0-2.49,35-4.5,78.15-4.5s78.14,2,78.14,4.5-35,4.49-78.14,4.49S657,449.12,657,446.64Z" transform="translate(-31.58 -39.07)"/><path class="cls-8" d="M705.78,141.75l-6.4-38.1c-.3-2.57,4-8.72,6.12-10,5.75-3.54,15.61-6.23,22.09-4.78,0,0,16,5.17,11.25,21.6-7.76,19.34,27.93,43.13,14,42.79" transform="translate(-31.58 -39.07)"/><ellipse class="cls-13" cx="669.3" cy="82.61" rx="4.46" ry="4.79"/><path class="cls-32" d="M719.51,112.57a32.16,32.16,0,0,0,3.38.23c1.34,0,4.41-.32,4.85,3.43a5.54,5.54,0,0,1-4.94,6c-.59,0-1.93.16-2.33.62-1.21,1.42.07,12.44-.86,16.31-2.07,8.54,2.32,4.51,2.32,4.51s-28.5,32.64-20.63,0c0,0,1.65-20.28,1.55-20.38-1.63-1.75-7.84-2.47-4-17,2.5-9.39,4,.17,11.5-11C711.51,96.51,710.33,109.05,719.51,112.57Z" transform="translate(-31.58 -39.07)"/><path class="cls-33" d="M726.22,117.31s-2.09-4.74-4.75,1.61" transform="translate(-31.58 -39.07)"/><path class="cls-34" d="M710.75,112.19a3.37,3.37,0,1,0,3.06,3.43A3.23,3.23,0,0,0,710.75,112.19Z" transform="translate(-31.58 -39.07)"/><path class="cls-34" d="M697.72,113.44a3.29,3.29,0,0,0,2.56-3.23,3.4,3.4,0,0,0-1.52-3S697.43,111,697.72,113.44Z" transform="translate(-31.58 -39.07)"/><path class="cls-33" d="M705.45,104.54l-2.2,7.11-1.66-.79a.48.48,0,0,1-.09-.8Z" transform="translate(-31.58 -39.07)"/><path d="M711,105.21c.41.62.17-1.55-.51-2a1.34,1.34,0,0,0-2,.24A4.4,4.4,0,0,1,711,105.21Z" transform="translate(-31.58 -39.07)"/><path d="M700.79,103.73c-.68.2.77-1.33,1.59-1.26a1.47,1.47,0,0,1,1.39,1.5A4.12,4.12,0,0,0,700.79,103.73Z" transform="translate(-31.58 -39.07)"/><path d="M707.37,109.31c-.23.61-.64,1-.92.89s-.31-.71-.08-1.32.64-1,.92-.89S707.6,108.7,707.37,109.31Z" transform="translate(-31.58 -39.07)"/><path d="M703,107.05c-.22.59-.61,1-.87.85s-.3-.68-.08-1.26.61-1,.87-.85S703.17,106.47,703,107.05Z" transform="translate(-31.58 -39.07)"/><path class="cls-33" d="M702.85,123.3s5.94,1.22,8.95,1S702.12,133,702.85,123.3Z" transform="translate(-31.58 -39.07)"/><ellipse class="cls-13" cx="688.94" cy="84.53" rx="4.46" ry="4.79"/><path class="cls-35" d="M706.11,418.37,704,434.86s-3.47,10.93-6.69,6.7a32.73,32.73,0,0,0-6.41-6.47l-1.06-17.15Z" transform="translate(-31.58 -39.07)"/><path class="cls-34" d="M697.68,419l-1.2,27.21s10.19,1.64,6.4-5.69l2.88-20.32Z" transform="translate(-31.58 -39.07)"/><path class="cls-8" d="M689.79,435l-12.87,11.2c-.65.52-.18,1.41.76,1.41,0,0,27.8-.17,27.84-.6.25-2.71-.92-12.19-1.37-14.66-.07-.35-3,11.67-3.5,10.55-.69-1.49-8.69-7.3-9.29-7.86A1.28,1.28,0,0,0,689.79,435Z" transform="translate(-31.58 -39.07)"/><path class="cls-35" d="M759,418.37l5.84,16.49s3.47,10.93,6.69,6.7a32.73,32.73,0,0,1,6.41-6.47l-2.62-17.15Z" transform="translate(-31.58 -39.07)"/><path class="cls-34" d="M767.4,419l4.88,27.21s-10.2,1.64-6.41-5.69l-6.55-20.32Z" transform="translate(-31.58 -39.07)"/><path class="cls-8" d="M779,435l12.86,11.2c.66.52.19,1.41-.75,1.41,0,0-27.81-.17-27.85-.6-.25-2.71,0-14.34.3-14.34,1.09,0,2.39,11,4.57,10.23,1.47-.54,8.7-7.3,9.29-7.86A1.29,1.29,0,0,1,779,435Z" transform="translate(-31.58 -39.07)"/><path class="cls-24" d="M732.25,200.4c5.9,11.19,9,19.39,12.4,33.62,3.93,16.5,31.84,154.85,33.69,184.87-5.23.32-16.56,1.49-19.62,1.31-9.74-30-40.2-126.43-44.37-145.3a2.27,2.27,0,0,0-4.49.69c2.37,21.56-1.41,107-.52,144-2.54,1.39-17.34.72-20.27.33-3.19-37-18.23-174.67,7.34-220C708.1,198.1,720.4,200,732.25,200.4Z" transform="translate(-31.58 -39.07)"/><path class="cls-36" d="M700.43,200.31a223.16,223.16,0,0,0-12.06,71c0,39,4.47,142.54,4.47,142.54" transform="translate(-31.58 -39.07)"/><line class="cls-36" x1="738.42" y1="371.81" x2="694.55" y2="162.42"/><path class="cls-37" d="M697.17,198.81l50.59,48s-7.53-29.74-16.08-47Z" transform="translate(-31.58 -39.07)"/><line class="cls-36" x1="677.76" y1="374.58" x2="656.98" y2="374.51"/><line class="cls-36" x1="746.43" y1="371.97" x2="724.92" y2="372.71"/><path class="cls-32" d="M648.3,169.49s31.46,46.84,38.83,41.26c0,0,8.45-6.41,4.2-32.58,0-2.54,0-4.31.07-4.7,0,0,1.82-25.84,5.78-31.19.43-.59,1.74-1.68,1.57-1.73-12.08-3.24-16.7,29.37-20,44.45-.14.63-23.2-23.49-23.2-23.49s-12.08-17.14-12.92-16.16c-1.22,1.42,3.46,9.06,3.46,9.06a2.52,2.52,0,0,1-1.22,1.31,3.07,3.07,0,0,0-1.73,2.41c-.31,1.31-1.53,2.07-1.73,2.84S645.72,167.49,648.3,169.49Z" transform="translate(-31.58 -39.07)"/><path class="cls-32" d="M655.11,161.41s-2.44-7.43-3.46-7.21-5.49,2.29-5.39,4.15,4,.32,4,.32-.71,4.16,1.22,4.7S655.11,161.41,655.11,161.41Z" transform="translate(-31.58 -39.07)"/><path class="cls-34" d="M649.11,158.35s.1,1.85-1.32,2.18c0,0-.31,2-2.14,1.53,0,0,.51.87-.61,1.09C645,163.15,649.82,168.72,649.11,158.35Z" transform="translate(-31.58 -39.07)"/><path class="cls-33" d="M650,154.77c-.84.65-1.72,1.22-2.6,1.78-.41.3-.94.52-1.25.81s-.37.55-.15.77a2.53,2.53,0,0,0,1.17.58,10,10,0,0,0,1.48.18,3.73,3.73,0,0,1,.43,0,.67.67,0,0,1,.54.36.83.83,0,0,1,0,.55l-.1.39c-.15.5-.28,1-.46,1.51h-.05l.27-1.55c0-.25.14-.53.06-.75s-.44-.16-.69-.17a4.25,4.25,0,0,1-3-.79.83.83,0,0,1-.24-.76,1.28,1.28,0,0,1,.44-.67,9.32,9.32,0,0,1,1.36-.8l2.76-1.5Z" transform="translate(-31.58 -39.07)"/><path class="cls-33" d="M646,154.18a1.62,1.62,0,0,1,.63.22,4.25,4.25,0,0,1,.47.37,3.45,3.45,0,0,1,.32.49,1.61,1.61,0,0,1,.16.62l0,0c-.54-.55-1.07-1.11-1.57-1.7Z" transform="translate(-31.58 -39.07)"/><path class="cls-33" d="M643.91,156.94c.47.32.89.67,1.31,1s.81.71,1.24,1,.83.7,1.22,1a1.38,1.38,0,0,0,.6.31.77.77,0,0,0,.69-.13l0,0a.87.87,0,0,1-.73.36,1.45,1.45,0,0,1-.79-.25,11.6,11.6,0,0,1-1.33-1,16.55,16.55,0,0,1-2.29-2.37Z" transform="translate(-31.58 -39.07)"/><path class="cls-33" d="M647.89,160.53a2.22,2.22,0,0,1-.62,2,1.37,1.37,0,0,1-1.22.21,3,3,0,0,1-1-.5,8.71,8.71,0,0,1-1.32-1.49,9.17,9.17,0,0,1-1-1.7l0,0c.39.51.79,1,1.2,1.49a10.14,10.14,0,0,0,1.34,1.36,1.49,1.49,0,0,0,1.7.35,2.47,2.47,0,0,0,.79-1.66Z" transform="translate(-31.58 -39.07)"/><path class="cls-33" d="M645.78,161.73a2.48,2.48,0,0,1,0,1.24,2.1,2.1,0,0,1-.26.64.85.85,0,0,1-.39.29,1.65,1.65,0,0,1-.36.11,2.08,2.08,0,0,1-1.3-.25,5.3,5.3,0,0,1-.55-.33,1.1,1.1,0,0,1-.33-.59l0,0a1.51,1.51,0,0,0,.42.38,3.22,3.22,0,0,0,.55.18,2.56,2.56,0,0,0,1.12.2c.42,0,.63-.36.76-.72a3.27,3.27,0,0,0,.26-1.12Z" transform="translate(-31.58 -39.07)"/><path class="cls-14" d="M701.64,140s-10.71-.67-13.83,6.18-10,37.43-10,37.43L657,161.52,646.21,173s32.24,42.56,40.1,39.94S701.74,149.38,701.64,140Z" transform="translate(-31.58 -39.07)"/><path class="cls-4" d="M699.24,148.37c-5,15.25-11.89,30.16-18.08,45-1.91,4.57-3.89,9.11-5.89,13.63,3.81,4,7.91,7,11,6,7.1-2.36,14-52.2,15.15-68.77C700.73,145.57,700,147,699.24,148.37Z" transform="translate(-31.58 -39.07)"/><path class="cls-14" d="M701.54,140.38c.34.89-13.74,28.18-13.34,36.87s-16.53,87.22-17,88.54c0,0,70.88-.2,85.93,0-13.94-75.14-13.94-106.63-22.06-124.29,0,0-11.91-5.83-14.87-6.07C720.24,135.43,703.41,147.69,701.54,140.38Z" transform="translate(-31.58 -39.07)"/><path class="cls-4" d="M735.11,141.5s-1.47-.72-3.49-1.66c-1.74,11.5-5.2,22.81-7.82,34.08q-5.06,21.79-9.87,43.66-5.29,24-10.26,48.14c20.78,0,45.34,0,53.5.07C743.23,190.65,743.23,159.16,735.11,141.5Z" transform="translate(-31.58 -39.07)"/><path class="cls-34" d="M745.23,225.24c-.4-3.07,1.81,3.94,4.16,13.1.74,2.87-2.68,1.92-5.65-7Z" transform="translate(-31.58 -39.07)"/><path class="cls-32" d="M772.08,184.31c2.16-4,2.29-6.55-.36-10.21-4.55-6.27-13.53-15.21-27.39-27.17-15.1-13-19.55,2.33-19.55,2.33s25.83,29.6,28.65,32.46c-3.25,7-9.3,21.37-13.47,27.85a7,7,0,0,1-.76,1,12.65,12.65,0,0,0-3.32,5.69c-1.35,5.27-3.26,13.57-1.83,13.31,2.09-.37,4.87-7.65,4.87-7.65s-1.57,19.59,1.73,20c.35-.38,3-12.69,2.61-14.93,0,0-1,14.38,0,15.3,2.78,2.42,2.26-1.68,2.26-1.68l.91-23.85S764.27,198.82,772.08,184.31Z" transform="translate(-31.58 -39.07)"/><path class="cls-14" d="M753.43,181.72c-.64,1.37-13.44,25.73-14.25,27.55,4.66,3,6,6.35,10.63,9.45,2.61-3.95,22-30.74,23.84-34.23,2.16-4,.72-6.73-1.93-10.39-4.55-6.27-13.53-15.21-27.39-27.17-15.1-13-18.65-3.52-18.65-3.52S705.93,152.05,753.43,181.72Z" transform="translate(-31.58 -39.07)"/><g class="cls-15"><path class="cls-16" d="M618.51,78.47c5.94-6.87,13.58-11,22.06-11,11.29,0,20.2,5.94,20.2,17.4,0,11-13.49,13.75-13.49,18.84v4.67h-15.7l-.09-6.79c0-7.81,13.5-12.22,13.5-16.89,0-3.22-3.31-4-6.28-4-3.65,0-8.15,3.57-11,7ZM639,111.86c6,0,10.1,4.16,10.1,9s-3.9,8.74-10.1,8.74c-5.51,0-9.67-4.33-9.67-8.74A9.32,9.32,0,0,1,639,111.86Z" transform="translate(-31.58 -39.07)"/><path class="cls-13" d="M665.22,122a12.31,12.31,0,0,1,6.2-8.43c4.26-2.2,8.78-1.69,11,2.63,2.15,4.17-2.42,7.82-1.42,9.74l.9,1.77-5.92,3-1.36-2.54c-1.52-3,2.72-7.24,1.81-9-.63-1.21-2-.86-3.15-.28-1.38.71-2.38,2.93-2.81,4.78Zm14.22,8.62a4,4,0,0,1,5.57,1.43c.92,1.8.22,4.06-2.11,5.27a4,4,0,0,1-5.36-1.42A4,4,0,0,1,679.44,130.65Z" transform="translate(-31.58 -39.07)"/><path class="cls-16" d="M756.23,93.64a12.34,12.34,0,0,1,10.42.88c4.1,2.48,6,6.6,3.51,10.77-2.42,4-7.92,2-9,3.87l-1,1.7-5.71-3.45,1.47-2.49c1.71-2.84,7.59-1.47,8.61-3.17.71-1.17-.32-2.18-1.4-2.83-1.33-.8-3.74-.5-5.54.1Zm.08,16.64a4,4,0,0,1,1.69,5.49c-1,1.73-3.34,2.32-5.59,1a3.78,3.78,0,1,1,3.9-6.44Z" transform="translate(-31.58 -39.07)"/></g><g class="cls-2"><path class="cls-3" d="M513.6,112.46c-20.23-2.32-40.42,8.24-53.73,23.66S439.24,171.23,434.36,191c-3.74,15.15-6.2,31-3,46.31s12.88,29.93,27.46,35.47c7,2.67,14.88,3.17,21.5,6.75,18.41,10,17.67,35.81,22.15,56.25a85.47,85.47,0,0,0,23.9,42.86c11.93,11.53,29.78,19.59,45.06,13.15,11.72-5,18.73-17,23.34-28.86,21.46-55.23,7.72-117.46-10.17-174-7.52-23.78-39.48-72.25-64.24-75.19" transform="translate(-31.58 -39.07)"/><path class="cls-3" d="M460,303.07a10.3,10.3,0,1,0,9.35-11.18A10.29,10.29,0,0,0,460,303.07Z" transform="translate(-31.58 -39.07)"/><path class="cls-3" d="M573.29,414.13a4.42,4.42,0,1,0,4-4.79A4.41,4.41,0,0,0,573.29,414.13Z" transform="translate(-31.58 -39.07)"/><path class="cls-3" d="M440.88,134.89a4.18,4.18,0,1,1,4.53,3.79A4.17,4.17,0,0,1,440.88,134.89Z" transform="translate(-31.58 -39.07)"/><circle class="cls-3" cx="460.86" cy="114.68" r="10.24" transform="translate(-45.63 73.72) rotate(-13.75)"/></g><path class="cls-18" d="M511,78.49c0-.64-11.66,2.14-19.7,8.49,0,0-50.42,23.78-50.59,31.73S496.17,184.87,506,169c0,0,5-3.16,2.19-7.88s-4.17-16.12-32-44.06c0,0,19.37-16.83,21.58-18.73,0,0,13.59-.24,12-1.81s-7.48-1.72-7.48-1.72,14.07-8.53,13.9-10.48S511,78.49,511,78.49Z" transform="translate(-31.58 -39.07)"/><path class="cls-38" d="M485.7,128.53c15.75,18.23,20.27,28.84,22.49,32.6C511,165.85,506,169,506,169c-6.59,10.63-33.76-12-50.91-30.51A292.28,292.28,0,0,0,485.7,128.53Z" transform="translate(-31.58 -39.07)"/><path class="cls-14" d="M509.1,147.5s14.42,22.1,1.42,32-35.1-16.35-50.93-32.93l27.21-22.47Z" transform="translate(-31.58 -39.07)"/><path class="cls-3" d="M482.42,446.64c0-2.49,35-4.5,78.14-4.5s78.15,2,78.15,4.5-35,4.49-78.15,4.49S482.42,449.12,482.42,446.64Z" transform="translate(-31.58 -39.07)"/><polygon class="cls-18" points="463.02 394.52 463.29 379.64 477.62 380.75 477.26 395.05 470.56 406.67 458.5 397.37 463.02 394.52"/><path class="cls-38" d="M496,419l11,23.42s-2.13-3.67,2.2-7.55V419Z" transform="translate(-31.58 -39.07)"/><path class="cls-14" d="M492.33,432.57a67.64,67.64,0,0,0,8.64,8c2.91,2.2,7.22-7.18,8.57-8.35.27-.24.64,0,.69.4l1.68,15.35H469.48a1,1,0,0,1-.9-1.16C470.83,435.36,492.33,432.57,492.33,432.57Z" transform="translate(-31.58 -39.07)"/><path class="cls-39" d="M487.16,445.28s-1.65-7.85-7.23-9.3c0,0-8.79,2.9-10.85,9.51h42.37" transform="translate(-31.58 -39.07)"/><line class="cls-39" x1="478.94" y1="396.71" x2="470.15" y2="406.32"/><polygon class="cls-18" points="531.09 396.45 526.68 382.12 542.11 381.57 545.41 396.73 539.71 406.67 527.64 397.37 531.09 396.45"/><path class="cls-38" d="M561.56,421.19l12.68,17.64s-.2.58,4.13-3.31l-5-14.88Z" transform="translate(-31.58 -39.07)"/><path class="cls-14" d="M560.63,434.46a66.86,66.86,0,0,0,8.65,8c2.9,2.2,7.22-7.18,8.56-8.35.27-.24.64,0,.69.4l1.69,15.35H537.78a1,1,0,0,1-.89-1.16C539.14,437.25,560.63,434.46,560.63,434.46Z" transform="translate(-31.58 -39.07)"/><path class="cls-39" d="M555.46,447.17s-1.65-7.86-7.23-9.3c0,0-8.78,2.89-10.85,9.5h42.37" transform="translate(-31.58 -39.07)"/><line class="cls-39" x1="547.24" y1="398.59" x2="538.46" y2="408.2"/><path class="cls-8" d="M494.52,248.3s-5.46,65.28-6,83.32,4.12,88.47,4.12,88.47L510.9,420s19.32-124.46,41.37-168Z" transform="translate(-31.58 -39.07)"/><polyline class="cls-40" points="470.46 369.86 473.35 287.19 486.17 238.82"/><polygon class="cls-24" points="481.62 381.43 460.54 381.02 459.3 369.03 483.69 369.03 481.62 381.43"/><path class="cls-41" d="M494.47,248.3s12.62,54.42,25.44,92.92c10.35,31.11,37.79,80.25,37.79,80.25l18.35-.8-19.5-78.53A77.1,77.1,0,0,1,554.33,328c-1.14-18.07,2.58-54.61,4.13-78Z" transform="translate(-31.58 -39.07)"/><path class="cls-40" d="M566.11,409.34c.41-1.24-25.22-75.64-25.22-85.15s.42-42.16.42-42.16" transform="translate(-31.58 -39.07)"/><polygon class="cls-24" points="546.52 381.43 526.13 382.4 519.24 371.1 544.86 369.86 546.52 381.43"/><path class="cls-14" d="M543.81,134.83s28.5,2.91,30.3,26.51S564,282.86,564,282.86l-78.37-5.4,8-110.53A34.38,34.38,0,0,1,499,150c3-4.66.13-8,2.12-8.24l38.3-10.16Z" transform="translate(-31.58 -39.07)"/><path class="cls-42" d="M552.21,141.42c19,2.9,20.84,8.94,21.74,20.74,1.79,23.61-10.07,120.69-10.07,120.69L491.72,278" transform="translate(-31.58 -39.07)"/><path class="cls-18" d="M533.41,108.88l9.37,25.73s-7.41,9.26-12.31,9.92C520.42,145.87,518.7,137,518.7,137l.11-14.12,13.33-12.07Z" transform="translate(-31.58 -39.07)"/><path class="cls-38" d="M532.14,110.82l-13.33,12.07.1,5.07s10.61,2.36,14.75-15.41" transform="translate(-31.58 -39.07)"/><path class="cls-8" d="M510.07,227.14l-26.13-47.35a10,10,0,0,0-6.55-5l-39.08-2.47A1.23,1.23,0,0,0,437,174.2l25.1,44.89a10,10,0,0,0,6.23,4.81l40.4,5.06A1.22,1.22,0,0,0,510.07,227.14Z" transform="translate(-31.58 -39.07)"/><path class="cls-24" d="M506.64,227.59l-23.58-45.32c-1.39-2.54-5.33-5-8.09-5.55l-36.68-2a1.23,1.23,0,0,0-1.28,1.85l25.1,44.88a9.93,9.93,0,0,0,6.23,4.81l37,3.13A1.22,1.22,0,0,0,506.64,227.59Z" transform="translate(-31.58 -39.07)"/><polygon class="cls-43" points="461.05 155.82 449.01 160.02 465.04 163.14 461.05 155.82"/><path class="cls-18" d="M493.11,213.34c2,1.21,25.45,21.44,44.31,30.74,5.2,2.57,12-3.4,13.87-8.81l17.49-46-28.47-14.37c-.12.31-5.14,28.94-9.22,38.82-1.46,3.54-.57,3-3.86,1.81l-25.71-13.1a19,19,0,0,1-2.93-3.36c-1.51-2.65-6.77-5.57-6.77-5.57l3.13,5.63c.55,1-.1,1.16-2,.34l-12.77-5.38s-2.88-.62-1.37.55,6.58,4.34,6.76,4.44c3.25,1.73-8.38-3.76-8.34-2.67s6.74,4.91,6.63,5-7.29-3.19-7.3-2.16,6.35,4.17,6.57,4.19c.42.06-5.11-2.85-5.15-2.29S492,212.65,493.11,213.34Z" transform="translate(-31.58 -39.07)"/><path class="cls-38" d="M536.35,194.61c2.2-10,3.89-19.52,4-19.7l28.47,14.37-11.1,29.2C550.73,210.38,543.69,202.36,536.35,194.61Z" transform="translate(-31.58 -39.07)"/><path class="cls-38" d="M539.57,237c2.59-1.69,8.92-3.74,11.23-.51-2.36,5-8.55,10-13.38,7.62-.73-.36-1.46-.74-2.21-1.13A10,10,0,0,1,539.57,237Z" transform="translate(-31.58 -39.07)"/><path class="cls-14" d="M543.07,154.18s2.68-19.53,18.4-15.47c21.32,5.49,10.24,68.28,4.31,78.09l-33.35-17Z" transform="translate(-31.58 -39.07)"/><path class="cls-8" d="M505.15,94.15c.58,4.33,3.85,2,3.85,2,10.23,4.1,23.78,12,23.78,12s4.09-1.57,3.91-2.64c-.83-5-2.23-13.47-3.2-19.33a7.31,7.31,0,0,0-7.57-6.1c-8.57.42-22.71,1.16-23.81,1.57-2.13.79-3.44,5.81,2.85,5.89,0,0-4.49,1.4-3.92,3.71S505.15,94.15,505.15,94.15Z" transform="translate(-31.58 -39.07)"/><path class="cls-38" d="M525.56,103.19a5.87,5.87,0,0,1-.48.68c4.48,2.41,7.7,4.29,7.7,4.29s4.09-1.57,3.91-2.64c-.3-1.82-.66-3.72-1-5.57C531.8,99.7,527.56,99.83,525.56,103.19Z" transform="translate(-31.58 -39.07)"/><path class="cls-18" d="M532.38,105.08a.61.61,0,0,0,1,0c.87-1.25,2.71-3.09,4.27.93,2.13,5.46-4,5.62-4.29,6.48-.66,1.72-2.72,7.5-6.9,10.39-2.54,1.77-7.14,4.11-9.92,2.64-.58-.3-4.91-.79-9.63-32.21A3,3,0,0,0,511,94.57c2-.82,3.29-2.87,5.44-3.95,1.76-.87,6.6-3.13,10,2.89C528.06,96.27,531,102.81,532.38,105.08Z" transform="translate(-31.58 -39.07)"/><path class="cls-38" d="M536.72,105.8l-2.67,3S534.12,102.84,536.72,105.8Z" transform="translate(-31.58 -39.07)"/><path class="cls-44" d="M514.06,108.35c.13.68.51,1.18.84,1.11s.5-.66.36-1.35-.5-1.18-.83-1.11S513.93,107.67,514.06,108.35Z" transform="translate(-31.58 -39.07)"/><path class="cls-44" d="M510,109.44c.13.68.5,1.18.84,1.11s.49-.66.36-1.35-.51-1.18-.84-1.11S509.9,108.76,510,109.44Z" transform="translate(-31.58 -39.07)"/><path class="cls-44" d="M517.48,100.69c1,.45-.93-2.1-2.2-2.18a2.15,2.15,0,0,0-2.41,1.88A6.64,6.64,0,0,1,517.48,100.69Z" transform="translate(-31.58 -39.07)"/><path class="cls-44" d="M508.93,105.17a6.71,6.71,0,0,1,2.21-.36,2.24,2.24,0,0,0-2.55-1.33" transform="translate(-31.58 -39.07)"/><path class="cls-38" d="M512.23,108.78l-.83,5.57a.15.15,0,0,0,.15.17l2.19-.26a.13.13,0,0,0,.11-.17l-1.37-5.32A.13.13,0,0,0,512.23,108.78Z" transform="translate(-31.58 -39.07)"/><g class="cls-15"><path class="cls-16" d="M532.52,49.57c4.46-5.16,10.18-8.21,16.55-8.21,8.46,0,15.14,4.45,15.14,13,0,8.27-10.11,10.31-10.11,14.13V72H542.32l-.06-5.09c0-5.86,10.12-9.17,10.12-12.67,0-2.41-2.48-3-4.71-3-2.74,0-6.11,2.68-8.27,5.22Zm15.34,25c4.52,0,7.57,3.12,7.57,6.75s-2.93,6.55-7.57,6.55c-4.14,0-7.26-3.24-7.26-6.55A7,7,0,0,1,547.86,74.6Z" transform="translate(-31.58 -39.07)"/><path class="cls-16" d="M506.11,62.52a12.36,12.36,0,0,1,5.5-8.9c4.07-2.54,8.62-2.39,11.19,1.74s-1.78,8-.63,9.82l1,1.69-5.66,3.52L516,68c-1.76-2.81,2.12-7.44,1.07-9.12-.72-1.16-2.09-.69-3.16,0-1.32.82-2.14,3.12-2.42,5ZM521,70a4,4,0,0,1,5.67,1c1.06,1.71.55,4-1.68,5.42a4,4,0,0,1-5.46-1A4,4,0,0,1,521,70Z" transform="translate(-31.58 -39.07)"/></g></g></g></svg>